<?xml version="1.0" standalone="no"?>
<!DOCTYPE svg PUBLIC "-//W3C//DTD SVG 20010904//EN"
 "http://www.w3.org/TR/2001/REC-SVG-20010904/DTD/svg10.dtd">
<svg version="1.0" xmlns="http://www.w3.org/2000/svg"
 width="526.000000pt" height="526.000000pt" viewBox="0 0 526.000000 526.000000"
 preserveAspectRatio="xMidYMid meet">
<metadata>
Created by potrace 1.11, written by Peter Selinger 2001-2013
</metadata>
<g transform="translate(0.000000,526.000000) scale(0.100000,-0.100000)"
fill="#000000" stroke="none">
<path d="M0 2630 l0 -2630 2630 0 2630 0 0 2630 0 2630 -2630 0 -2630 0 0
-2630z m2370 935 l0 -465 60 0 60 0 0 325 0 325 24 0 c19 0 24 6 30 38 8 51
43 100 86 123 43 23 129 25 170 4 40 -20 78 -73 88 -121 6 -33 12 -40 35 -42
l27 -3 0 -125 0 -124 140 0 140 0 0 -190 0 -190 55 0 55 0 0 285 0 285 45 0
45 0 0 90 0 90 195 0 195 0 0 -90 0 -90 45 0 45 0 0 -479 0 -479 29 -31 c16
-17 32 -45 36 -61 4 -17 13 -30 21 -30 12 0 14 -100 14 -690 l0 -690 -1380 0
-1380 0 0 615 0 615 50 0 50 0 0 680 0 680 210 0 210 0 0 -335 0 -335 50 0 50
0 0 440 0 440 250 0 250 0 0 -465z"/>
</g>
</svg>
